<svg width="33" height="33" viewBox="0 0 33 33" fill="none" xmlns="http://www.w3.org/2000/svg">
<g id="Frame 234">
<path id="bg" d="M0.501953 16.6016C0.501953 25.4381 7.6654 32.6016 16.502 32.6016C25.3385 32.6016 32.502 25.4381 32.502 16.6016C32.502 7.76501 25.3385 0.601562 16.502 0.601562C7.6654 0.601562 0.501953 7.76501 0.501953 16.6016Z" fill="#5E685D"/>
<g id="instagram">
<path d="M16.5021 9.80176C18.7021 9.80176 19.0021 9.80176 19.9021 9.80176C20.7021 9.80176 21.1021 10.0018 21.4021 10.1018C21.8021 10.3018 22.1021 10.4018 22.4021 10.7018C22.7021 11.0018 22.9021 11.3018 23.0021 11.7018C23.1021 12.0018 23.2021 12.4018 23.3021 13.2018C23.3021 14.1018 23.3021 14.3018 23.3021 16.6018C23.3021 18.9018 23.3021 19.1018 23.3021 20.0018C23.3021 20.8018 23.1021 21.2018 23.0021 21.5018C22.8021 21.9018 22.7021 22.2018 22.4021 22.5018C22.1021 22.8018 21.8021 23.0018 21.4021 23.1018C21.1021 23.2018 20.7021 23.3018 19.9021 23.4018C19.0021 23.4018 18.8021 23.4018 16.5021 23.4018C14.2021 23.4018 14.0021 23.4018 13.1021 23.4018C12.3021 23.4018 11.9021 23.2018 11.6021 23.1018C11.2021 22.9018 10.9021 22.8018 10.6021 22.5018C10.3021 22.2018 10.1021 21.9018 10.0021 21.5018C9.90215 21.2018 9.80215 20.8018 9.70215 20.0018C9.70215 19.1018 9.70215 18.9018 9.70215 16.6018C9.70215 14.3018 9.70215 14.1018 9.70215 13.2018C9.70215 12.4018 9.90215 12.0018 10.0021 11.7018C10.2021 11.3018 10.3021 11.0018 10.6021 10.7018C10.9021 10.4018 11.2021 10.2018 11.6021 10.1018C11.9021 10.0018 12.3021 9.90176 13.1021 9.80176C14.0021 9.80176 14.3021 9.80176 16.5021 9.80176ZM16.5021 8.30176C14.2021 8.30176 14.0021 8.30176 13.1021 8.30176C12.2021 8.30176 11.6021 8.50176 11.1021 8.70176C10.6021 8.90176 10.1021 9.20176 9.60215 9.70176C9.10215 10.2018 8.90215 10.6018 8.60215 11.2018C8.40215 11.7018 8.30215 12.3018 8.20215 13.2018C8.20215 14.1018 8.20215 14.4018 8.20215 16.6018C8.20215 18.9018 8.20215 19.1018 8.20215 20.0018C8.20215 20.9018 8.40215 21.5018 8.60215 22.0018C8.80215 22.5018 9.10215 23.0018 9.60215 23.5018C10.1021 24.0018 10.5021 24.2018 11.1021 24.5018C11.6021 24.7018 12.2021 24.8018 13.1021 24.9018C14.0021 24.9018 14.3021 24.9018 16.5021 24.9018C18.7021 24.9018 19.0021 24.9018 19.9021 24.9018C20.8021 24.9018 21.4021 24.7018 21.9021 24.5018C22.4021 24.3018 22.9021 24.0018 23.4021 23.5018C23.9021 23.0018 24.1021 22.6018 24.4021 22.0018C24.6021 21.5018 24.7021 20.9018 24.8021 20.0018C24.8021 19.1018 24.8021 18.8018 24.8021 16.6018C24.8021 14.4018 24.8021 14.1018 24.8021 13.2018C24.8021 12.3018 24.6021 11.7018 24.4021 11.2018C24.2021 10.7018 23.9021 10.2018 23.4021 9.70176C22.9021 9.20176 22.5021 9.00176 21.9021 8.70176C21.4021 8.50176 20.8021 8.40176 19.9021 8.30176C19.0021 8.30176 18.8021 8.30176 16.5021 8.30176Z" fill="#A1CCAB"/>
<path d="M16.5021 12.3018C14.1021 12.3018 12.2021 14.2018 12.2021 16.6018C12.2021 19.0018 14.1021 20.9018 16.5021 20.9018C18.9021 20.9018 20.8021 19.0018 20.8021 16.6018C20.8021 14.2018 18.9021 12.3018 16.5021 12.3018ZM16.5021 19.4018C15.0021 19.4018 13.7021 18.2018 13.7021 16.6018C13.7021 15.1018 14.9021 13.8018 16.5021 13.8018C18.0021 13.8018 19.3021 15.0018 19.3021 16.6018C19.3021 18.1018 18.0021 19.4018 16.5021 19.4018Z" fill="#A1CCAB"/>
<path d="M20.9021 13.2018C21.4544 13.2018 21.9021 12.754 21.9021 12.2018C21.9021 11.6495 21.4544 11.2018 20.9021 11.2018C20.3499 11.2018 19.9021 11.6495 19.9021 12.2018C19.9021 12.754 20.3499 13.2018 20.9021 13.2018Z" fill="#A1CCAB"/>
</g>
</g>
</svg>
