<svg width="16" height="16" viewBox="0 0 16 16" fill="none" xmlns="http://www.w3.org/2000/svg">
<g id="Group">
<path id="Vector" d="M14 10.7065V13.0121C14.0001 13.1772 13.9361 13.3362 13.8211 13.457C13.706 13.5777 13.5484 13.6513 13.38 13.6629C13.0887 13.6824 12.8507 13.6929 12.6667 13.6929C6.77533 13.6929 2 9.02227 2 3.26015C2 3.08018 2.01 2.8474 2.03067 2.56246C2.04248 2.39778 2.11772 2.24361 2.2412 2.13107C2.36468 2.01853 2.52722 1.95598 2.696 1.95605H5.05333C5.13603 1.95597 5.2158 1.98596 5.27715 2.04018C5.33851 2.09441 5.37706 2.169 5.38533 2.24948C5.40067 2.39945 5.41467 2.51877 5.428 2.6094C5.56049 3.51374 5.832 4.39329 6.23333 5.21824C6.29667 5.34865 6.25533 5.50449 6.13533 5.58795L4.69667 6.5934C5.5763 8.59808 7.2097 10.1957 9.25933 11.056L10.286 9.65149C10.328 9.59411 10.3892 9.55296 10.459 9.5352C10.5288 9.51745 10.6028 9.52422 10.668 9.55434C11.5113 9.94613 12.4104 10.211 13.3347 10.3401C13.4273 10.3531 13.5493 10.3674 13.7013 10.3818C13.7835 10.39 13.8596 10.4278 13.9149 10.4878C13.9702 10.5478 14.0008 10.6257 14.0007 10.7065H14Z" fill="#5E685D"/>
</g>
</svg>
