<svg width="43" height="45" viewBox="0 0 43 45" fill="none" xmlns="http://www.w3.org/2000/svg">
<path d="M39.3697 10.7475C36.9638 7.30072 33.558 4.67537 29.6123 3.22609C25.6666 1.77681 21.3712 1.57342 17.3062 2.64341C13.2413 3.71339 9.60261 6.00519 6.88178 9.20924C4.16096 12.4133 2.48904 16.3752 2.09188 20.5598C1.69471 24.7444 2.59143 28.9502 4.66091 32.6089C6.73039 36.2676 9.87291 39.203 13.664 41.0186C17.4551 42.8342 21.7121 43.4425 25.86 42.7614" stroke="#5E685D" stroke-width="3"/>
<path d="M32.2533 14.4347C30.7463 12.1893 28.5941 10.2458 26.1226 9.30166C23.651 8.35752 20.4217 8.60483 17.8754 9.30188C15.3291 9.99893 13.0499 11.4919 11.3455 13.5792C9.64122 15.6665 8.59393 18.2475 8.34515 20.9736C8.09636 23.6997 8.65807 26.4395 9.95439 28.823C11.2507 31.2065 13.1583 33.3158 15.5331 34.4986C17.9078 35.6814 20.7376 36.6144 23.3359 36.1706" stroke="#5E685D" stroke-width="3"/>
<path d="M16.3869 27.2068V25.1358L22.6569 16.6998H25.8869L19.7499 25.1358L18.2489 24.6988H28.7179V27.2068H16.3869ZM23.5499 29.9998V27.2068L23.6449 24.6988V22.2098H26.5519V29.9998H23.5499ZM28.848 29.9998L33.427 23.9958L33.37 25.6298L28.981 19.7778H32.306L35.08 23.5968L33.826 23.6348L36.695 19.7778H39.849L35.441 25.5728V23.9768L40.001 29.9998H36.638L33.731 25.9338L34.966 26.1048L32.078 29.9998H28.848Z" fill="#5E685D"/>
</svg>
