<svg width="50" height="51" viewBox="0 0 50 51" fill="none" xmlns="http://www.w3.org/2000/svg">
<g id="Group">
<path id="Vector" d="M20.4439 13.2339C20.4432 16.0961 21.1937 18.9084 22.6203 21.3898C24.0469 23.8711 26.0998 25.9346 28.5737 27.3741C31.0476 28.8135 33.856 29.5785 36.7182 29.5926C39.5804 29.6067 42.3962 28.8694 44.8842 27.4544C43.9008 37.8275 35.1633 45.9435 24.5326 45.9435C13.2417 45.9435 4.08911 36.791 4.08911 25.5C4.08911 14.8694 12.2052 6.13181 22.5782 5.14848C21.1749 7.61179 20.4392 10.3989 20.4439 13.2339ZM8.17782 25.5C8.17782 29.8376 9.90091 33.9975 12.968 37.0646C16.0352 40.1317 20.1951 41.8548 24.5326 41.8548C27.4223 41.8547 30.2604 41.0895 32.7584 39.637C35.2565 38.1845 37.3255 36.0966 38.7552 33.5854C38.1092 33.6468 37.455 33.6774 36.7988 33.6774C25.5078 33.6774 16.3552 24.5249 16.3552 13.2339C16.3552 12.5777 16.3859 11.9255 16.4472 11.2774C13.936 12.7071 11.8481 14.7761 10.3956 17.2742C8.94319 19.7723 8.17799 22.6104 8.17782 25.5ZM37.134 5.65139L38.8431 6.07866V8.12301L37.134 8.55028C36.4152 8.73004 35.7588 9.10175 35.2349 9.62567C34.711 10.1496 34.3393 10.806 34.1595 11.5248L33.7322 13.2339H31.6879L31.2606 11.5248C31.0808 10.806 30.7091 10.1496 30.1852 9.62567C29.6613 9.10175 29.0049 8.73004 28.2861 8.55028L26.577 8.12301V6.07866L28.2861 5.65139C29.0045 5.47129 29.6605 5.09944 30.184 4.57555C30.7076 4.05165 31.079 3.39539 31.2586 2.67685L31.6879 0.967773H33.7322L34.1595 2.67685C34.3393 3.39564 34.711 4.05208 35.2349 4.576C35.7588 5.09991 36.4152 5.47162 37.134 5.65139ZM47.3558 15.8731L49.0649 16.3004V18.3448L47.3558 18.772C46.637 18.9518 45.9806 19.3235 45.4566 19.8474C44.9327 20.3713 44.561 21.0278 44.3813 21.7466L43.954 23.4557H41.9096L41.4824 21.7466C41.3026 21.0278 40.9309 20.3713 40.407 19.8474C39.8831 19.3235 39.2266 18.9518 38.5078 18.772L36.7988 18.3448V16.3004L38.5078 15.8731C39.2266 15.6934 39.8831 15.3217 40.407 14.7978C40.9309 14.2738 41.3026 13.6174 41.4824 12.8986L41.9096 11.1895H43.954L44.3813 12.8986C44.561 13.6174 44.9327 14.2738 45.4566 14.7978C45.9806 15.3217 46.637 15.6934 47.3558 15.8731Z" fill="#5E685D"/>
</g>
</svg>
