<svg width="50" height="51" viewBox="0 0 50 51" fill="none" xmlns="http://www.w3.org/2000/svg">
<g id="Group">
<path id="Vector" d="M12.4356 27.5444C12.1401 25.7862 12.2314 23.9848 12.7032 22.2654C13.175 20.5461 14.0159 18.9503 15.1673 17.5892C16.3188 16.228 17.7531 15.1342 19.3705 14.384C20.9878 13.6338 22.7492 13.2451 24.5321 13.2451C26.3149 13.2451 28.0764 13.6338 29.6937 14.384C31.311 15.1342 32.7454 16.228 33.8968 17.5892C35.0483 18.9503 35.8892 20.5461 36.3609 22.2654C36.8327 23.9848 36.924 25.7862 36.6285 27.5444H32.4519C32.7625 26.3364 32.7926 25.0733 32.54 23.8519C32.2874 22.6304 31.7587 21.4829 30.9943 20.4972C30.23 19.5115 29.2503 18.7137 28.1302 18.1649C27.0102 17.6161 25.7794 17.3307 24.5321 17.3307C23.2848 17.3307 22.054 17.6161 20.9339 18.1649C19.8138 18.7137 18.8341 19.5115 18.0698 20.4972C17.3055 21.4829 16.7768 22.6304 16.5241 23.8519C16.2715 25.0733 16.3017 26.3364 16.6122 27.5444H12.4356ZM4.08854 31.6331H24.5321V35.7219H4.08854V31.6331ZM28.6208 31.6331H44.9756V35.7219H28.6208V31.6331ZM32.7095 39.8106H40.8869V43.8993H32.7095V39.8106ZM8.17725 39.8106H28.6208V43.8993H8.17725V39.8106ZM22.4877 3.01221H26.5764V9.14527H22.4877V3.01221ZM7.18574 11.0445L10.0765 8.15375L14.4125 12.4898L11.5218 15.3805L7.18574 11.0465V11.0445ZM38.9856 8.15375L41.8764 11.0445L37.5403 15.3805L34.6496 12.4898L38.9856 8.15375ZM47.02 23.4557V27.5444H40.8869V23.4557H47.02ZM8.17725 23.4557V27.5444H2.04419V23.4557H8.17725Z" fill="#5B4450"/>
</g>
</svg>
